<svg width="100" height="100" viewBox="0 0 100 100" fill="none" xmlns="http://www.w3.org/2000/svg">
<rect width="100" height="100" fill="#F7F7F7"/>
<path d="M78.1817 76.5346C78.0342 67.0864 75.0907 58.4953 69.8572 52.2751C64.6542 46.0929 57.6029 42.6883 49.9999 42.6883C42.397 42.6883 35.3456 46.0929 30.1426 52.2751C24.9142 58.4887 21.9726 67.0678 21.8188 76.5044C24.7753 77.9853 37.0097 83.6883 49.9999 83.6883C64.0469 83.6883 75.44 78.0188 78.1817 76.5346Z" fill="#ECECEC"/>
<path d="M50 40.1258C57.7838 40.1258 64.0938 33.8158 64.0938 26.0321C64.0938 18.2483 57.7838 11.9383 50 11.9383C42.2162 11.9383 35.9062 18.2483 35.9062 26.0321C35.9062 33.8158 42.2162 40.1258 50 40.1258Z" fill="#ECECEC"/>
<path fill-rule="evenodd" clip-rule="evenodd" d="M78.1827 76.4978C78.1728 76.503 78.1629 76.5081 78.153 76.5133C66.2444 82.7358 54.5508 84.1245 44.7055 83.3006C51.8841 81.312 32.5144 77.0452 21.8463 75.1466V76.5133L21.7773 76.4607C29.1283 83.4387 39.064 87.72 49.9996 87.72C60.9158 87.72 70.8356 83.4538 78.1827 76.4978ZM21.8463 76.5133L21.8465 76.5134L21.8464 76.5133L21.8463 76.5133Z" fill="#DEDEDE"/>
<path fill-rule="evenodd" clip-rule="evenodd" d="M78.1425 76.5558C78.1462 76.5417 78.1498 76.5275 78.1534 76.5133C78.0755 71.7192 76.9638 64.8743 74.0051 58.6105C72.8468 56.3055 71.4593 54.1792 69.8573 52.2751C66.2631 48.0046 61.787 45.0594 56.8563 43.6464C54.843 43.1588 52.6532 42.8933 50.2734 42.8933C58.5645 44.1689 74.6001 53.0067 72.4134 78.1533C72.3814 78.5216 72.351 78.8811 72.322 79.2319C75.1368 78.1156 77.161 77.0855 78.1425 76.5558Z" fill="#DEDEDE"/>
</svg>
