<svg width="375" height="189" viewBox="0 0 375 189" fill="none" xmlns="http://www.w3.org/2000/svg">
<rect y="17" width="375" height="172" fill="#A7EBC7"/>
<path fill-rule="evenodd" clip-rule="evenodd" d="M321.854 189H90.6918C76.1104 182.788 53.9036 163.457 51.1472 121.336C48.0224 73.5845 95.4149 55.7755 119.502 52.8399C140.334 32.6172 180.044 3.99521e-05 223.01 0C264.602 -3.86743e-05 340.586 31.0753 321.854 189Z" fill="url(#paint0_linear)"/>
<g clip-path="url(#clip0)">
<path d="M244 120.5C244 144.705 228.78 165.353 207.388 173.398L193.498 170.412L175.763 175.777C150.192 170.377 131 147.677 131 120.5C131 89.297 156.297 64 187.5 64C218.703 64 244 89.297 244 120.5Z" fill="url(#paint1_linear)"/>
<path d="M240.936 76.1071L231.887 117.53C231.74 118.207 231.539 118.862 231.294 119.495C229.504 124.103 225.242 127.396 220.203 127.868C215.218 128.333 210.922 131.576 209.111 136.244L204.985 146.863L196.497 143.566L191.216 141.515L195.343 130.896C196.25 128.56 196.457 126.072 196.017 123.702C195.58 121.33 194.492 119.083 192.808 117.228C188.944 112.964 188.28 106.693 191.168 101.715L202.026 83.0052C202.059 82.9465 202.095 82.8867 202.128 82.8277L212.45 65.0433C212.965 64.1529 214.052 63.7687 215.012 64.1415L215.634 64.3831C216.708 64.8003 217.242 66.0122 216.824 67.0896L205.698 95.742C205.402 96.503 205.443 97.3105 205.748 97.998C206.05 98.6903 206.619 99.265 207.38 99.5606C208.817 100.119 210.44 99.4802 211.108 98.0925L224.828 69.6154C225.065 69.1245 225.47 68.7663 225.947 68.5769C226.42 68.3922 226.96 68.3752 227.469 68.5725C228.486 68.9676 229.03 70.081 228.714 71.1247L219.62 101.399C219.398 102.133 219.477 102.895 219.792 103.543C220.108 104.187 220.658 104.718 221.377 104.999C222.898 105.588 224.606 104.835 225.198 103.316L236.324 74.6635C236.743 73.586 237.955 73.0521 239.029 73.4693L239.651 73.7109C240.611 74.0839 241.157 75.1023 240.936 76.1071Z" fill="#F1F4F6"/>
<path d="M201.66 115.168C205.095 122.965 201.364 131.282 196.497 143.566L191.216 141.515L195.343 130.896C196.25 128.56 196.457 126.072 196.017 123.702C195.58 121.33 194.492 119.083 192.808 117.228C188.944 112.964 188.28 106.693 191.168 101.715L202.026 83.0052C193.61 97.6422 197.987 106.829 201.66 115.168Z" fill="#DFEAEF"/>
<path d="M205.011 151.919C202.099 160.143 199.021 168.302 195.779 176.395C195.209 176.479 194.633 176.554 194.057 176.62C192.166 176.841 190.245 176.967 188.301 176.993H188.299C188.032 176.998 187.767 177 187.5 177C183.474 177 179.548 176.578 175.763 175.777C179.51 165.493 183.518 155.309 187.787 145.23C189.259 141.754 193.108 139.904 196.728 140.975C198.297 141.438 199.815 142.027 201.285 142.745C204.677 144.398 206.271 148.362 205.011 151.919Z" fill="#FFD064"/>
<path d="M197.838 141.328C195.915 142.111 194.298 143.632 193.432 145.669C189.102 155.899 185.017 166.225 181.181 176.649C179.347 176.446 177.54 176.155 175.763 175.777C179.51 165.493 183.518 155.312 187.787 145.23C189.259 141.754 193.106 139.904 196.728 140.977C197.101 141.087 197.471 141.204 197.838 141.328Z" fill="#E7A52E"/>
<path d="M185.84 129.547L191.206 141.729L183.499 145.124L177.69 147.684L172.322 135.501C170.678 131.771 166.972 129.322 162.898 129.41C152.386 129.637 142.75 124.265 137.343 111.992C130.567 96.6133 134.483 79.5905 145.906 71.2369C145.906 71.2347 145.909 71.2324 145.909 71.2324C147.418 70.1245 149.062 69.1711 150.83 68.392C165.948 61.7334 184.428 70.4534 192.099 87.8713C197.507 100.145 194.969 110.88 187.705 118.481C186.229 120.023 185.339 121.961 185.057 123.994C184.805 125.843 185.057 127.77 185.84 129.547Z" fill="#F1F4F6"/>
<path d="M183.499 145.124L177.69 147.684L172.322 135.501C170.678 131.771 166.972 129.322 162.898 129.41C167.623 129.41 173.801 123.48 183.499 145.124Z" fill="#DFEAEF"/>
<path d="M173.471 82.0851C180.374 75.1824 191.46 99.2008 183.407 113.286C175.354 127.37 158.113 124.543 154.071 120.5C150.028 116.457 169.977 119.833 173.097 106.92C176.217 94.0072 169.013 86.5431 173.471 82.0851Z" fill="#DFEAEF"/>
<path d="M207.388 173.398C201.437 175.638 195.011 176.901 188.299 176.993C184.664 168.982 181.192 160.895 177.888 152.736C176.471 149.238 177.886 145.208 181.203 143.405C182.638 142.623 184.13 141.968 185.677 141.434C189.246 140.204 193.172 141.88 194.799 145.287C199.222 154.557 203.417 163.928 207.388 173.398Z" fill="#5490F9"/>
<path d="M194.057 176.62C192.166 176.841 190.246 176.967 188.301 176.993H188.299C184.664 168.982 181.194 160.895 177.888 152.736C176.471 149.238 177.886 145.208 181.203 143.405C181.545 143.219 181.89 143.04 182.236 142.868C181.431 144.782 181.364 147.002 182.192 149.055C185.948 158.331 189.903 167.519 194.057 176.62Z" fill="#428D99"/>
</g>
<defs>
<linearGradient id="paint0_linear" x1="188.581" y1="-138.276" x2="188.581" y2="189" gradientUnits="userSpaceOnUse">
<stop stop-color="#42B883"/>
<stop offset="1" stop-color="#A7EBC7"/>
</linearGradient>
<linearGradient id="paint1_linear" x1="188" y1="-217" x2="187.5" y2="175.777" gradientUnits="userSpaceOnUse">
<stop stop-color="#A7EBC7"/>
<stop offset="1" stop-color="#42B883"/>
</linearGradient>
<clipPath id="clip0">
<rect width="113" height="113" fill="white" transform="translate(131 64)"/>
</clipPath>
</defs>
</svg>
