<svg width="375" height="189" viewBox="0 0 375 189" fill="none" xmlns="http://www.w3.org/2000/svg">
<rect width="375" height="189" fill="#A7EBC7"/>
<path fill-rule="evenodd" clip-rule="evenodd" d="M321.854 189H90.6918C76.1104 182.788 53.9036 163.457 51.1472 121.336C48.0224 73.5845 95.4149 55.7755 119.502 52.8399C140.334 32.6172 180.044 3.99521e-05 223.01 0C264.602 -3.86742e-05 340.586 31.0753 321.854 189Z" fill="url(#paint0_linear)"/>
<path d="M135 117C135 86.6243 159.624 62 190 62C220.376 62 245 86.6243 245 117C245 135.126 236.231 151.205 222.704 161.225C213.563 154.453 202.249 150.449 190 150.449C177.751 150.449 166.437 154.453 157.296 161.225C143.769 151.205 135 135.126 135 117V117Z" fill="#4BBD89"/>
<path d="M183.322 85.6328H172.419C165.893 85.6328 160.602 80.3425 160.602 73.8164C160.602 67.2903 165.893 62 172.419 62H183.322C189.848 62 195.138 67.2903 195.138 73.8164C195.138 80.3425 189.848 85.6328 183.322 85.6328V85.6328Z" fill="#6A61B4"/>
<path d="M207.581 85.6328H182.695C176.169 85.6328 170.879 80.3425 170.879 73.8164C170.879 67.2903 176.169 62 182.695 62H207.581C214.107 62 219.398 67.2903 219.398 73.8164C219.398 80.3425 214.107 85.6328 207.581 85.6328Z" fill="#8078BF"/>
<path d="M223.674 73V160.49C220.621 162.857 217.312 164.91 213.796 166.6C212.746 167.105 210.978 167.486 208.694 167.746C180.751 170.931 156.327 148.876 156.327 120.752V73H223.674Z" fill="#51489A"/>
<path d="M168.449 73V165.253C168.449 166.373 167.28 167.115 166.27 166.631C162.729 164.936 159.398 162.872 156.327 160.49V73H168.449Z" fill="#453D83"/>
<path d="M212.112 93.2041V167.374C205.345 170.349 197.865 172 190 172C182.134 172 174.654 170.349 167.888 167.374V93.2041C167.888 89.1812 171.161 85.9083 175.184 85.9083H204.816C208.839 85.9083 212.112 89.1812 212.112 93.2041V93.2041Z" fill="#24D3B5"/>
<path d="M212.112 129.444V165.702C212.112 166.723 211.497 167.65 210.549 168.032C204.201 170.591 197.265 172 190 172C182.736 172 175.802 170.592 169.454 168.034C168.504 167.651 167.888 166.722 167.888 165.698V129.444C167.888 141.657 177.788 151.556 190 151.556C202.212 151.557 212.112 141.657 212.112 129.444Z" fill="#20B7A1"/>
<path d="M213.796 93.2041V166.6C212.693 167.13 211.57 167.624 210.429 168.081V93.2041C210.429 90.1095 207.911 87.592 204.817 87.592H175.184C172.089 87.592 169.572 90.1095 169.572 93.2041V168.081C168.43 167.624 167.307 167.13 166.204 166.6V138.102C164.965 138.102 163.959 137.097 163.959 135.857V129.122C163.959 127.882 164.965 126.877 166.204 126.877V108.918C164.965 108.918 163.959 107.913 163.959 106.673V99.9386C163.959 98.6988 164.965 97.6937 166.204 97.6937V93.2039C166.204 88.2447 170.225 84.2243 175.184 84.2243H204.817C209.776 84.2245 213.796 88.2449 213.796 93.2041Z" fill="#E9F3FE"/>
<path d="M226.738 79.1875H153.262C151.482 79.1875 150.039 77.7446 150.039 75.9648C150.039 74.1851 151.482 72.7422 153.262 72.7422H226.738C228.518 72.7422 229.961 74.1851 229.961 75.9648C229.961 77.7446 228.518 79.1875 226.738 79.1875Z" fill="#20B7A1"/>
<path d="M226.738 79.1875H168.301C166.521 79.1875 165.078 77.7446 165.078 75.9648C165.078 74.1851 166.521 72.7422 168.301 72.7422H226.738C228.518 72.7422 229.961 74.1851 229.961 75.9648C229.961 77.7446 228.518 79.1875 226.738 79.1875Z" fill="#24D3B5"/>
<path d="M188.802 129.612C189.311 130.357 188.777 131.367 187.875 131.367H178.335C177.433 131.367 176.899 130.357 177.408 129.612L182.178 122.624C182.624 121.971 183.586 121.971 184.032 122.624L188.802 129.612ZM183.105 119.889C185.585 119.889 187.595 117.879 187.595 115.399C187.595 112.919 185.585 110.909 183.105 110.909C180.625 110.909 178.615 112.919 178.615 115.399C178.615 117.879 180.625 119.889 183.105 119.889ZM202.242 122.134H192.702C191.8 122.134 191.267 123.144 191.775 123.889L196.545 130.878C196.991 131.531 197.954 131.531 198.399 130.878L203.169 123.889C203.678 123.144 203.144 122.134 202.242 122.134ZM197.472 119.889C199.952 119.889 201.962 117.879 201.962 115.399C201.962 112.919 199.952 110.909 197.472 110.909C194.993 110.909 192.982 112.919 192.982 115.399C192.982 117.879 194.993 119.889 197.472 119.889Z" fill="#453D83"/>
<defs>
<linearGradient id="paint0_linear" x1="188.581" y1="-138.276" x2="188.581" y2="189" gradientUnits="userSpaceOnUse">
<stop stop-color="#42B883"/>
<stop offset="1" stop-color="#A7EBC7"/>
</linearGradient>
</defs>
</svg>
