<svg width="375" height="189" viewBox="0 0 375 189" fill="none" xmlns="http://www.w3.org/2000/svg">
<rect width="375" height="189" fill="#A7EBC7"/>
<path fill-rule="evenodd" clip-rule="evenodd" d="M321.854 189H90.6918C76.1104 182.788 53.9036 163.457 51.1472 121.336C48.0224 73.5845 95.4149 55.7755 119.502 52.8399C140.334 32.6172 180.044 3.99521e-05 223.01 0C264.602 -3.86742e-05 340.586 31.0753 321.854 189Z" fill="url(#paint0_linear)"/>
<path d="M188 167C218.376 167 243 142.376 243 112C243 81.6243 218.376 57 188 57C157.624 57 133 81.6243 133 112C133 142.376 157.624 167 188 167Z" fill="#42B883"/>
<path d="M213.699 71.0373H162.301C158.548 71.0373 155.506 74.0792 155.506 77.8319V104.38H220.494V77.8319C220.494 74.0792 217.452 71.0373 213.699 71.0373V71.0373Z" fill="#9E653E"/>
<path d="M220.495 77.8312V104.379H188V71.0378H213.7C217.453 71.0378 220.495 74.08 220.495 77.8312V77.8312Z" fill="#835637"/>
<path d="M209.099 83.3998C207.362 82.1361 204.653 82.8885 203.059 85.0777C203.006 85.1508 202.955 85.2247 202.905 85.2992C202.242 86.2967 201.141 86.911 199.944 86.8884C199.89 86.8873 199.837 86.8869 199.783 86.8869L198.762 86.6594C191.7 85.0859 184.378 85.0859 177.316 86.6594L176.295 86.8869C176.241 86.8869 176.188 86.8873 176.134 86.8884C174.937 86.911 173.836 86.2967 173.173 85.2992C173.124 85.2247 173.072 85.1508 173.019 85.0777C171.425 82.8885 168.715 82.1354 166.979 83.3998C165.243 84.6639 165.127 87.4734 166.721 89.6627C166.985 90.0249 167.282 90.3517 167.604 90.6377C168.178 91.1477 168.397 91.9628 168.143 92.6879C167.832 93.5756 167.663 94.5283 167.663 95.5185V103.834C167.663 105.175 168.76 106.271 170.1 106.271H205.978C207.318 106.271 208.414 105.174 208.414 103.834V95.5185C208.414 94.5283 208.245 93.5756 207.934 92.6879C207.681 91.9628 207.899 91.1477 208.473 90.6377C208.796 90.3517 209.093 90.0251 209.356 89.6629C210.951 87.4734 210.835 84.6639 209.099 83.3998V83.3998Z" fill="white"/>
<path d="M209.358 89.6625C209.093 90.0256 208.797 90.3522 208.475 90.6379C207.899 91.1471 207.682 91.9635 207.935 92.6875C208.245 93.5748 208.414 94.5287 208.414 95.5192V103.834C208.414 104.021 208.393 104.203 208.352 104.379C208.103 105.46 207.132 106.27 205.978 106.27H188V85.4795C191.609 85.4774 195.219 85.8706 198.762 86.659L199.784 86.8868C199.838 86.8868 199.889 86.8868 199.943 86.8889C201.142 86.9104 202.242 86.2959 202.906 85.2991C202.955 85.2239 203.007 85.1508 203.058 85.0778C204.653 82.8885 207.362 82.1366 209.098 83.3999C210.836 84.6631 210.952 87.4733 209.358 89.6625Z" fill="#E9EDF5"/>
<path d="M227.579 118.252H148.499V109.918C148.499 105.783 151.851 102.431 155.986 102.431H220.092C224.227 102.431 227.579 105.783 227.579 109.918V118.252Z" fill="#005FD2"/>
<path d="M227.579 109.918V118.252H188V102.431H220.093C220.229 102.431 220.362 102.435 220.495 102.442C224.442 102.65 227.579 105.918 227.579 109.918V109.918Z" fill="#00459F"/>
<path d="M148.421 133.437H158.274V145.838H148.421V133.437Z" fill="#9E653E"/>
<path d="M217.726 133.437H227.579V145.838H217.726V133.437Z" fill="#835637"/>
<path d="M148.499 118.088H227.501V134.032H148.499V118.088Z" fill="#C68254"/>
<path d="M188 118.087H227.501V134.032H188V118.087Z" fill="#9E653E"/>
<defs>
<linearGradient id="paint0_linear" x1="188.581" y1="-138.276" x2="188.581" y2="189" gradientUnits="userSpaceOnUse">
<stop stop-color="#42B883"/>
<stop offset="1" stop-color="#A7EBC7"/>
</linearGradient>
</defs>
</svg>
