<svg width="60" height="60" viewBox="0 0 60 60" fill="none" xmlns="http://www.w3.org/2000/svg">
<g clip-path="url(#clip0)">
<path d="M50.9159 42.6361C51.9889 42.6398 52.8598 41.7724 52.8598 40.7007V5.80626C52.8598 2.59951 50.2603 0 47.0535 0H12.9417C9.73498 0 7.13547 2.59951 7.13547 5.80626V54.1918C7.13547 57.3986 9.73498 59.9981 12.9417 59.9981H33.5624C34.6342 59.9981 35.5015 59.1271 35.4979 58.0542C35.4906 56.2736 35.5015 52.6326 35.5015 44.978C35.5015 43.6861 36.5478 42.6398 37.8397 42.6398C45.4931 42.6398 49.1353 42.6289 50.9159 42.6361V42.6361ZM30.3654 12.3383H43.1875C44.2565 12.3383 45.123 13.2049 45.123 14.2737C45.123 15.3426 44.2565 16.2092 43.1875 16.2092H30.3654C29.2964 16.2092 28.4299 15.3426 28.4299 14.2737C28.4299 13.2049 29.2964 12.3383 30.3654 12.3383ZM24.718 44.3107L19.5771 49.4517C18.8212 50.2075 17.5958 50.2075 16.8399 49.4517L15.0859 47.6977C14.3302 46.9418 14.3302 45.7165 15.0859 44.9606C15.8418 44.2048 17.0672 44.2048 17.8231 44.9606L18.2085 45.3461L21.9809 41.5736C22.7368 40.8178 23.9621 40.8178 24.718 41.5736C25.4738 42.3295 25.4738 43.5548 24.718 44.3107V44.3107ZM24.718 28.5854L19.5771 33.7264C18.8212 34.4822 17.5958 34.4822 16.8399 33.7264L15.0859 31.9724C14.3302 31.2165 14.3302 29.9912 15.0859 29.2353C15.8418 28.4795 17.0672 28.4795 17.8231 29.2353L18.2085 29.6208L21.9809 25.8483C22.7368 25.0925 23.9621 25.0925 24.718 25.8483C25.4738 26.6042 25.4738 27.8295 24.718 28.5854V28.5854ZM24.718 12.8602L19.5771 18.0011C18.8212 18.7569 17.5958 18.7569 16.8399 18.0011L15.0859 16.2471C14.3302 15.4912 14.3302 14.2659 15.0859 13.51C15.8418 12.7542 17.0672 12.7542 17.8231 13.51L18.2085 13.8955L21.9809 10.123C22.7368 9.3672 23.9621 9.3672 24.718 10.123C25.4738 10.8789 25.4738 12.1042 24.718 12.8602V12.8602ZM31.3331 47.6598H30.3654C29.2964 47.6598 28.4299 46.7932 28.4299 45.7243C28.4299 44.6555 29.2964 43.7889 30.3654 43.7889H31.3331C32.402 43.7889 33.2685 44.6555 33.2685 45.7243C33.2685 46.7932 32.402 47.6598 31.3331 47.6598ZM30.3654 31.9345C29.2964 31.9345 28.4299 31.0679 28.4299 29.999C28.4299 28.9302 29.2964 28.0636 30.3654 28.0636H43.1875C44.2565 28.0636 45.123 28.9302 45.123 29.999C45.123 31.0679 44.2565 31.9345 43.1875 31.9345H30.3654ZM52.2925 47.5763L40.438 59.4307C39.2186 60.6497 37.1345 59.78 37.1345 58.0626V46.2082C37.1345 45.1389 38.0006 44.2728 39.0699 44.2728H50.9244C52.6192 44.2728 53.5287 46.3396 52.2925 47.5763Z" fill="url(#paint0_linear)"/>
</g>
<defs>
<linearGradient id="paint0_linear" x1="30.0001" y1="0" x2="30.0001" y2="60" gradientUnits="userSpaceOnUse">
<stop stop-color="#42B883"/>
<stop offset="1" stop-color="#A7EBC7"/>
</linearGradient>
<clipPath id="clip0">
<rect width="60" height="60" fill="white"/>
</clipPath>
</defs>
</svg>
