<svg width="70" height="53" viewBox="0 0 70 53" fill="none" xmlns="http://www.w3.org/2000/svg">
<path fill-rule="evenodd" clip-rule="evenodd" d="M49.6441 6.51973H54.0115C57.4668 6.51973 60.2778 9.33072 60.2778 12.786V20.0058L60.6596 19.624C62.6546 17.6247 64.6146 18.165 65.6865 19.2369L68.3924 21.9428C69.8865 23.4347 69.8865 25.8628 68.3924 27.3569L60.2778 35.4715V45.0668C60.2778 48.5221 57.4668 51.3331 54.0115 51.3331H17.933C14.4777 51.3331 11.6667 48.5221 11.6667 45.0668V12.786C11.6667 9.33072 14.4777 6.51973 17.933 6.51973H22.3004V4.24108C22.3004 3.40216 22.9804 2.72198 23.8195 2.72198C24.6585 2.72198 25.3386 3.40216 25.3386 4.24108V6.51973H46.6059V4.24108C46.6059 3.40216 47.286 2.72198 48.125 2.72198C48.964 2.72198 49.6441 3.40216 49.6441 4.24108V6.51973ZM57.2396 23.0436L44.4174 35.8641C44.1812 36.1025 44.0193 36.4088 43.9625 36.7391L42.8031 43.3125C42.709 43.8419 42.8796 44.38 43.2581 44.7585C43.5665 45.0691 43.9865 45.2397 44.4174 45.2397C44.5115 45.2397 44.6078 45.231 44.7018 45.2135L51.2752 44.0541C51.6077 43.9972 51.914 43.8375 52.1502 43.5991L57.2396 38.5097V45.0668C57.2396 46.8497 55.7944 48.2949 54.0115 48.2949H17.933C16.1501 48.2949 14.7049 46.8497 14.7049 45.0668V19.9068C14.7049 19.6446 14.9175 19.4321 15.1796 19.4321H56.7649C57.027 19.4321 57.2396 19.6446 57.2396 19.9068V23.0436Z" fill="url(#paint0_linear)"/>
<defs>
<linearGradient id="paint0_linear" x1="40.5898" y1="2.72198" x2="40.5898" y2="51.3331" gradientUnits="userSpaceOnUse">
<stop stop-color="#42B883"/>
<stop offset="1" stop-color="#A7EBC7"/>
</linearGradient>
</defs>
</svg>
